<?xml version="1.0" standalone="no"?>
<!DOCTYPE svg PUBLIC "-//W3C//DTD SVG 20010904//EN"
 "http://www.w3.org/TR/2001/REC-SVG-20010904/DTD/svg10.dtd">
<svg version="1.0" xmlns="http://www.w3.org/2000/svg"
 width="32.000000pt" height="32.000000pt" viewBox="0 0 1024.000000 1024.000000"
 preserveAspectRatio="xMidYMid meet">

<g transform="translate(0.000000,1024.000000) scale(0.100000,-0.100000)"
fill="#000000" stroke="none">
<path d="M4926 7921 c-179 -40 -321 -116 -447 -241 -123 -122 -203 -258 -235
-399 l-16 -68 -136 -6 c-161 -6 -312 -34 -455 -83 -429 -148 -758 -430 -946
-810 -96 -194 -131 -345 -131 -557 0 -171 24 -285 87 -413 l38 -79 5 -970 5
-970 28 -89 c57 -182 170 -362 312 -494 155 -145 329 -235 565 -295 l85 -21
1435 2 c923 2 1456 6 1494 13 151 27 333 99 455 180 257 173 428 425 482 711
9 46 12 316 14 988 l1 925 41 85 c63 130 84 220 90 390 6 168 -8 264 -62 427
-141 423 -477 765 -931 947 -189 76 -387 115 -585 116 l-95 0 -17 71 c-20 83
-80 208 -143 295 -108 152 -306 284 -510 339 -95 27 -319 29 -428 6z m163
-432 l49 -21 42 22 c60 31 172 25 252 -12 74 -34 152 -112 186 -186 23 -49 27
-70 27 -152 0 -87 -3 -101 -32 -160 -58 -117 -216 -269 -347 -331 -82 -39
-150 -46 -223 -23 -122 38 -320 201 -390 321 -85 145 -62 332 56 452 113 116
247 148 380 90z m-773 -741 c124 -248 328 -423 566 -488 356 -96 710 16 941
298 58 70 137 209 137 239 0 14 21 15 178 10 159 -4 189 -8 292 -37 334 -92
599 -295 769 -589 166 -287 159 -585 -19 -762 -73 -73 -136 -104 -259 -128
-54 -11 -114 -27 -133 -36 -133 -68 -190 -178 -187 -361 2 -112 -19 -160 -84
-199 -78 -45 -176 -24 -233 51 l-29 37 -5 207 -5 206 -39 80 c-68 137 -176
223 -330 261 -189 46 -413 -61 -509 -245 -46 -87 -57 -153 -57 -331 0 -127 -3
-150 -21 -189 -62 -128 -235 -135 -326 -14 l-33 44 0 157 c0 87 -5 183 -10
212 -26 138 -125 264 -259 327 -66 32 -87 37 -167 40 -149 7 -252 -27 -352
-114 -108 -95 -142 -195 -142 -424 0 -176 -8 -216 -53 -267 -78 -88 -195 -84
-272 11 -29 37 -30 41 -36 174 -5 122 -8 143 -31 188 -51 98 -135 153 -280
185 -119 26 -187 59 -254 124 -99 97 -140 218 -132 395 8 181 85 366 222 536
194 239 454 391 766 448 120 22 133 23 247 25 l103 1 36 -72z m179 -1630 c47
-21 55 -53 55 -215 0 -226 33 -331 138 -444 134 -145 267 -197 476 -186 214
11 382 118 471 301 46 92 55 148 55 323 0 159 11 201 56 222 39 17 63 13 94
-17 l27 -28 6 -184 c5 -200 13 -237 68 -340 42 -80 150 -182 232 -220 121 -57
278 -75 403 -45 106 25 173 62 255 144 106 107 148 201 149 338 0 101 23 130
122 152 25 6 53 13 63 17 17 7 18 -4 12 -222 -7 -318 -28 -383 -162 -519 -79
-80 -160 -126 -306 -177 l-94 -33 -1439 -3 c-1581 -3 -1534 -4 -1688 57 -177
70 -304 174 -366 300 l-37 75 -3 269 c-3 257 -2 269 15 262 10 -4 43 -16 73
-27 84 -29 100 -53 100 -147 0 -225 169 -425 412 -487 89 -23 250 -15 336 17
130 48 266 180 318 308 24 60 27 83 34 258 8 206 15 234 63 253 30 12 32 12
62 -2z m-1236 -1433 c78 -39 248 -93 323 -103 34 -4 745 -7 1578 -6 1667 2
1571 -1 1736 64 92 37 149 68 221 121 29 22 55 39 59 39 14 0 -4 -373 -20
-433 -73 -266 -334 -481 -641 -527 -47 -7 -511 -10 -1435 -8 l-1365 3 -73 23
c-258 79 -435 230 -533 452 -22 52 -24 69 -27 274 l-4 219 64 -45 c34 -25 87
-58 117 -73z"/>
</g>
</svg>
